<mxfile host="app.diagrams.net" modified="2024-04-26T01:21:28.138Z" agent="Mozilla/5.0 (Windows NT 10.0; Win64; x64) AppleWebKit/537.36 (KHTML, like Gecko) Chrome/124.0.0.0 Safari/537.36 Edg/124.0.0.0" etag="PyfXi_Gf_kFStHouWokQ" version="24.3.0" type="github">
  <diagram name="第 1 页" id="DJBsBqMxgB0ITJG-I2cp">
    <mxGraphModel dx="1002" dy="535" grid="1" gridSize="10" guides="1" tooltips="1" connect="1" arrows="1" fold="1" page="1" pageScale="1" pageWidth="827" pageHeight="1169" math="0" shadow="0">
      <root>
        <mxCell id="0" />
        <mxCell id="1" parent="0" />
        <mxCell id="1yODXRRl8ZnaE7Zifz1t-9" style="edgeStyle=orthogonalEdgeStyle;rounded=0;orthogonalLoop=1;jettySize=auto;html=1;entryX=0.5;entryY=0;entryDx=0;entryDy=0;" edge="1" parent="1" source="1yODXRRl8ZnaE7Zifz1t-1" target="1yODXRRl8ZnaE7Zifz1t-2">
          <mxGeometry relative="1" as="geometry">
            <Array as="points">
              <mxPoint x="320" y="160" />
              <mxPoint x="145" y="160" />
            </Array>
          </mxGeometry>
        </mxCell>
        <mxCell id="1yODXRRl8ZnaE7Zifz1t-10" style="edgeStyle=orthogonalEdgeStyle;rounded=0;orthogonalLoop=1;jettySize=auto;html=1;exitX=0.5;exitY=1;exitDx=0;exitDy=0;entryX=0.5;entryY=0;entryDx=0;entryDy=0;" edge="1" parent="1" source="1yODXRRl8ZnaE7Zifz1t-1" target="1yODXRRl8ZnaE7Zifz1t-3">
          <mxGeometry relative="1" as="geometry">
            <Array as="points">
              <mxPoint x="320" y="160" />
              <mxPoint x="215" y="160" />
            </Array>
          </mxGeometry>
        </mxCell>
        <mxCell id="1yODXRRl8ZnaE7Zifz1t-11" style="edgeStyle=orthogonalEdgeStyle;rounded=0;orthogonalLoop=1;jettySize=auto;html=1;exitX=0.5;exitY=1;exitDx=0;exitDy=0;" edge="1" parent="1" source="1yODXRRl8ZnaE7Zifz1t-1" target="1yODXRRl8ZnaE7Zifz1t-4">
          <mxGeometry relative="1" as="geometry">
            <Array as="points">
              <mxPoint x="320" y="160" />
              <mxPoint x="285" y="160" />
            </Array>
          </mxGeometry>
        </mxCell>
        <mxCell id="1yODXRRl8ZnaE7Zifz1t-12" style="edgeStyle=orthogonalEdgeStyle;rounded=0;orthogonalLoop=1;jettySize=auto;html=1;exitX=0.5;exitY=1;exitDx=0;exitDy=0;entryX=0.5;entryY=0;entryDx=0;entryDy=0;" edge="1" parent="1" source="1yODXRRl8ZnaE7Zifz1t-1" target="1yODXRRl8ZnaE7Zifz1t-5">
          <mxGeometry relative="1" as="geometry">
            <Array as="points">
              <mxPoint x="320" y="160" />
              <mxPoint x="355" y="160" />
            </Array>
          </mxGeometry>
        </mxCell>
        <mxCell id="1yODXRRl8ZnaE7Zifz1t-13" style="edgeStyle=orthogonalEdgeStyle;rounded=0;orthogonalLoop=1;jettySize=auto;html=1;exitX=0.5;exitY=1;exitDx=0;exitDy=0;entryX=0.5;entryY=0;entryDx=0;entryDy=0;" edge="1" parent="1" source="1yODXRRl8ZnaE7Zifz1t-1" target="1yODXRRl8ZnaE7Zifz1t-6">
          <mxGeometry relative="1" as="geometry">
            <Array as="points">
              <mxPoint x="320" y="160" />
              <mxPoint x="425" y="160" />
            </Array>
          </mxGeometry>
        </mxCell>
        <mxCell id="1yODXRRl8ZnaE7Zifz1t-14" style="edgeStyle=orthogonalEdgeStyle;rounded=0;orthogonalLoop=1;jettySize=auto;html=1;exitX=0.5;exitY=1;exitDx=0;exitDy=0;entryX=0.5;entryY=0;entryDx=0;entryDy=0;" edge="1" parent="1" source="1yODXRRl8ZnaE7Zifz1t-1" target="1yODXRRl8ZnaE7Zifz1t-7">
          <mxGeometry relative="1" as="geometry">
            <Array as="points">
              <mxPoint x="320" y="160" />
              <mxPoint x="495" y="160" />
            </Array>
          </mxGeometry>
        </mxCell>
        <mxCell id="1yODXRRl8ZnaE7Zifz1t-1" value="自动评估模块" style="rounded=0;whiteSpace=wrap;html=1;" vertex="1" parent="1">
          <mxGeometry x="260" y="70" width="120" height="60" as="geometry" />
        </mxCell>
        <mxCell id="1yODXRRl8ZnaE7Zifz1t-2" value="评估任务接收" style="rounded=0;whiteSpace=wrap;html=1;textDirection=vertical-lr;" vertex="1" parent="1">
          <mxGeometry x="120" y="200" width="50" height="200" as="geometry" />
        </mxCell>
        <mxCell id="1yODXRRl8ZnaE7Zifz1t-3" value="Java语言代码评估" style="rounded=0;whiteSpace=wrap;html=1;textDirection=vertical-lr;" vertex="1" parent="1">
          <mxGeometry x="190" y="200" width="50" height="200" as="geometry" />
        </mxCell>
        <mxCell id="1yODXRRl8ZnaE7Zifz1t-4" value="C语言代码评估" style="rounded=0;whiteSpace=wrap;html=1;textDirection=vertical-lr;" vertex="1" parent="1">
          <mxGeometry x="260" y="200" width="50" height="200" as="geometry" />
        </mxCell>
        <mxCell id="1yODXRRl8ZnaE7Zifz1t-5" value="C++语言评估" style="rounded=0;whiteSpace=wrap;html=1;textDirection=vertical-lr;" vertex="1" parent="1">
          <mxGeometry x="330" y="200" width="50" height="200" as="geometry" />
        </mxCell>
        <mxCell id="1yODXRRl8ZnaE7Zifz1t-6" value="Python语言代码评估" style="rounded=0;whiteSpace=wrap;html=1;textDirection=vertical-lr;" vertex="1" parent="1">
          <mxGeometry x="400" y="200" width="50" height="200" as="geometry" />
        </mxCell>
        <mxCell id="1yODXRRl8ZnaE7Zifz1t-7" value="评估结果推送" style="rounded=0;whiteSpace=wrap;html=1;textDirection=vertical-lr;" vertex="1" parent="1">
          <mxGeometry x="470" y="200" width="50" height="200" as="geometry" />
        </mxCell>
      </root>
    </mxGraphModel>
  </diagram>
</mxfile>
